<?xml version="1.0" encoding="utf-8"?>
<!-- Generator: Adobe Illustrator 16.0.0, SVG Export Plug-In . SVG Version: 6.00 Build 0)  -->
<!DOCTYPE svg PUBLIC "-//W3C//DTD SVG 1.1//EN" "http://www.w3.org/Graphics/SVG/1.1/DTD/svg11.dtd">
<svg version="1.1" id="Layer_1" xmlns="http://www.w3.org/2000/svg" xmlns:xlink="http://www.w3.org/1999/xlink" x="0px" y="0px"
	 width="841.89px" height="595.275px" viewBox="0 0 841.89 595.275" enable-background="new 0 0 841.89 595.275"
	 xml:space="preserve">
<g>
	<path fill="#FFFFFF" d="M331.39,261.386c0,14.902,7.992,25.993,22.965,25.993c11.952,0,17.569-6.41,20.952-13.032l-11.805-6.266
		c-2.738,4.754-4.609,7.129-9.001,7.129c-6.049,0-8.498-6.121-8.498-13.824c0-7.992,2.521-13.824,8.352-13.824
		c4.608,0,6.339,2.949,8.14,7.633l12.668-4.969c-3.453-9.504-8.352-14.832-20.733-14.832
		C340.892,235.394,331.39,245.187,331.39,261.386z M399.885,236.437h-14.258v49.895h14.258V236.437z M491.839,286.586l17.352-50.399
		H493.64l-3.672,13.535c-1.73,6.336-4.176,16.488-5.113,21.312c-0.934-4.824-3.383-15.051-5.113-21.312l-3.672-13.535h-15.695
		l17.352,50.399H491.839z M431.901,267.507c6.77,1.582,8.57,2.734,8.57,4.605c0,2.375-1.586,3.238-6.555,3.238
		c-4.68,0-11.086-2.516-14.759-5.039l-6.77,10.946c5.258,3.457,13.106,6.121,21.243,6.121c12.094,0,20.809-4.754,20.809-16.274
		c0-9.43-5.617-13.32-18.289-16.344c-6.48-1.512-8.281-2.375-8.281-4.25c0-1.797,1.008-3.094,5.184-3.094
		c5.113,0,9.578,1.727,14.039,4.754c0,0,7.051-11.426,6.77-10.945c-5.328-3.746-11.52-5.832-20.086-5.832
		c-12.173,0-19.876,6.406-19.876,15.91C413.9,261.386,419.732,264.699,431.901,267.507z M406.432,246.484
		c1.652,0.096,3.312,0.174,4.977,0.238l0.23,0.008c0.203-0.82,0.469-1.611,0.781-2.375c-0.312-0.012-0.625-0.023-0.938-0.035
		c-1.711-0.066-3.418-0.146-5.113-0.246c-0.75-0.047-1.496-0.09-2.238-0.141c-0.473-0.033-0.938-0.08-1.41-0.115v2.408
		c0.434,0.031,0.859,0.074,1.293,0.105C404.818,246.386,405.627,246.435,406.432,246.484z M455.343,262.644h11.145l-0.828-2.404
		h-11.93C454.351,260.972,454.878,261.785,455.343,262.644z M413.146,260.24h-10.426v2.404h12.105
		C414.189,261.921,413.635,261.113,413.146,260.24z M412.236,276.109c-3.199,0.113-6.371,0.301-9.516,0.535v2.41
		c2.641-0.195,5.301-0.348,7.98-0.461L412.236,276.109z M491.472,233.355l0.008-0.004h-0.008V233.355z M375.564,242.615
		c1.918,0.377,3.859,0.732,5.82,1.064c0.445,0.074,0.891,0.152,1.336,0.223c0.023,0.004,0.051,0.008,0.074,0.012v-2.434
		c-0.07-0.012-0.145-0.021-0.215-0.033c-0.309-0.051-0.617-0.104-0.926-0.154c-2.281-0.387-4.543-0.801-6.762-1.254
		c-0.02-0.004-0.039-0.008-0.059-0.012c-0.801-0.164-1.57-0.355-2.359-0.527c0.805,0.918,1.516,1.898,2.156,2.93
		C374.939,242.492,375.252,242.554,375.564,242.615z M372.318,283.383c3.41-0.742,6.918-1.379,10.477-1.961v-2.434
		c-2.684,0.434-5.324,0.915-7.926,1.438C374.068,281.5,373.221,282.488,372.318,283.383z M348.864,262.644h33.931v-2.404h-33.937
		C348.845,260.636,348.847,262.207,348.864,262.644z M452.819,156.279c3.215,0.846,6.508-1.076,7.355-4.292
		s-1.074-6.504-4.293-7.354c-3.215-0.845-6.508,1.074-7.355,4.291C447.679,152.138,449.604,155.435,452.819,156.279z
		 M389.689,156.281c3.215-0.846,5.137-4.143,4.289-7.356c-0.848-3.217-4.137-5.135-7.355-4.291c-3.215,0.85-5.137,4.139-4.293,7.354
		C383.178,155.203,386.475,157.125,389.689,156.281z M504.14,181.39c2.336,1.576,5.508,0.959,7.086-1.377
		c1.578-2.334,0.957-5.502-1.375-7.08c-2.34-1.576-5.508-0.961-7.086,1.375S501.804,179.816,504.14,181.39z M541.839,215.32
		c1.938-1.477,2.312-4.248,0.84-6.188c-1.477-1.936-4.242-2.309-6.184-0.836s-2.312,4.246-0.84,6.18
		C537.132,216.417,539.901,216.792,541.839,215.32z M338.364,181.392c2.336-1.574,2.953-4.748,1.375-7.084
		c-1.574-2.336-4.746-2.951-7.082-1.375c-2.336,1.578-2.957,4.746-1.379,7.08C332.856,182.351,336.028,182.968,338.364,181.392z
		 M548.374,269.042c2.672-3.926,2.016-14.662,1.895-16.861c-0.109-1.908-1.121-0.531-1.484,0.139
		c-0.848,1.572-2.48,2.984-4.031,4.916c-1.547,1.938-1.961,8.744-2.172,10.006c-0.164,1.004-1.008,2.406-2.035,2.98
		c0.453-3.02,0.684-6.078,0.684-9.164c0-8.852-0.516-17.547-2.707-25.6c0.008-0.072-0.008-0.166-0.07-0.287
		c0,0-0.008-0.016-0.012-0.02c-0.461-1.656-0.965-3.293-1.582-4.891c-0.609-2.898-1.012-7.027-0.336-12.305
		c0.086-0.703-1.438-1.48-2.191-2.473c-0.754-0.988-1.098-2.664-1.793-2.762c-10.168-1.471-15.188-5.657-15.961-6.353
		c-0.027-0.035-0.027-0.062-0.066-0.101c0,0-6.824-6.25-9.793-20.867c-0.188-0.922-2.441-1.25-3.812-2.176
		c-1.367-0.926-2.52-2.891-3.445-2.717c-14.668,2.723-23.02-1.268-23.02-1.268c-0.039-0.017-0.059-0.008-0.094-0.02
		c-0.027-0.015-0.031-0.032-0.062-0.047c0,0-10.035-4.301-19.035-19.43c-0.566-0.957-3.207-0.445-5.09-0.943
		c-1.891-0.498-3.938-2.236-4.898-1.686c-14.895,8.522-24.703,7.502-26.024,7.597c-1.441-0.078-11.215,0.86-25.992-7.597
		c-0.961-0.551-3.008,1.188-4.895,1.686s-4.523-0.012-5.09,0.943c-9,15.129-19.035,19.43-19.035,19.43
		c-0.031,0.015-0.035,0.031-0.062,0.046c-0.039,0.012-0.059,0.003-0.098,0.021c0,0-8.352,3.99-23.021,1.268
		c-0.922-0.174-2.074,1.791-3.445,2.717c-1.367,0.926-3.625,1.254-3.812,2.176c-2.969,14.617-9.793,20.867-9.793,20.867
		c-0.041,0.039-0.043,0.068-0.072,0.104c-0.785,0.705-5.803,4.882-15.951,6.349c-0.699,0.098-1.043,1.773-1.797,2.764
		c-0.75,0.99-2.277,1.768-2.188,2.471c0.672,5.264,0.271,9.387-0.334,12.287c-0.623,1.607-1.131,3.256-1.596,4.924
		c0,0.002-0.004,0.008-0.004,0.008c-0.059,0.117-0.078,0.207-0.072,0.281c-2.191,8.051-2.705,16.75-2.705,25.602
		c0,3.086,0.229,6.145,0.682,9.164c-1.029-0.574-1.869-1.977-2.035-2.98c-0.209-1.262-0.623-8.068-2.17-10.006
		c-1.551-1.932-3.184-3.344-4.033-4.916c-0.361-0.67-1.373-2.047-1.482-0.139c-0.121,2.199-0.779,12.936,1.895,16.861
		c1.984,2.914,4.988,4.617,8.469,4.598c1.273,6.122,3.484,12.083,6.629,17.84c-1.225-0.148-2.57-1.395-3.023-2.395
		c-0.529-1.168-2.691-7.633-4.688-9.102c-1.998-1.469-3.941-2.407-5.17-3.708c-0.521-0.555-1.857-1.625-1.467,0.246
		c0.451,2.156,2.598,12.704,6.195,15.797c2.809,2.418,6.355,3.277,9.875,2.117c0,0,0.002,0,0.004,0
		c0.43,0.707,0.834,1.422,1.295,2.125c3.061,4.664,6.717,9.066,10.896,13.203c-1.211,0.27-2.906-0.5-3.66-1.316
		c-0.867-0.938-4.959-6.398-7.316-7.156c-2.355-0.762-4.498-1.047-6.074-1.891c-0.668-0.359-2.273-0.953-1.312,0.695
		c1.105,1.906,6.465,11.23,10.859,13.043c3.391,1.398,6.992,1.105,9.953-1.055c4.135,3.797,8.723,7.355,13.797,10.629
		c0.566,0.363,1.174,0.691,1.748,1.047c-1.105,0.434-2.756,0.152-3.635-0.383c-1.094-0.668-6.516-4.805-8.992-4.898
		c-2.475-0.094-4.613,0.223-6.359-0.164c-0.738-0.16-2.445-0.293-1.072,1.031c1.584,1.527,9.279,9.047,13.998,9.59
		c3.502,0.406,6.756-0.758,9.014-3.406c5.564,3.23,11.518,6.082,17.796,8.539c-1,0.57-2.562,0.625-3.488,0.305
		c-1.211-0.418-7.392-3.301-9.829-2.859c-2.438,0.434-4.461,1.195-6.248,1.195c-0.76,0-2.455,0.23-0.826,1.234
		c1.871,1.156,10.996,6.855,15.724,6.379c3.414-0.348,6.281-2.094,7.945-5.02c6.09,2.211,12.445,4.066,19.035,5.523
		c-0.852,0.828-2.484,1.207-3.5,1.055c-1.266-0.191-7.863-1.914-10.184-1.039c-2.32,0.867-4.172,1.984-5.93,2.305
		c-0.746,0.133-2.371,0.672-0.59,1.367c2.047,0.797,12.051,4.754,16.613,3.43c3.324-0.965,5.844-3.223,6.938-6.438
		c3.918,0.777,7.883,1.473,11.934,1.977c2.527,0.309,4.895,0.695,7.16,1.152c-0.781,0.582-1.84,0.949-2.609,0.957
		c-1.281,0.02-8.074-0.602-10.219,0.645c-2.145,1.234-3.789,2.641-5.473,3.238c-0.715,0.258-2.23,1.051-0.359,1.445
		c2.152,0.449,12.672,2.723,16.953,0.672c2.676-1.281,4.605-3.41,5.457-6.102c2.891,0.742,5.57,1.648,8.105,2.723
		c-5.527,3.012-10.434,7-15.23,12.305l1.781,1.609c5.055-5.59,10.223-9.672,16.203-12.645c5.981,2.973,11.149,7.055,16.204,12.645
		l1.781-1.609c-4.801-5.305-9.703-9.293-15.234-12.305c2.535-1.074,5.219-1.98,8.109-2.723c0.852,2.691,2.781,4.82,5.457,6.102
		c4.281,2.051,14.801-0.223,16.953-0.672c1.871-0.395,0.355-1.188-0.359-1.445c-1.684-0.598-3.328-2.004-5.473-3.238
		c-2.145-1.246-8.938-0.625-10.219-0.645c-0.77-0.008-1.828-0.375-2.613-0.957c2.266-0.457,4.637-0.844,7.164-1.152
		c4.047-0.504,8.016-1.199,11.934-1.977c1.094,3.215,3.609,5.473,6.938,6.438c4.559,1.324,14.566-2.633,16.613-3.43
		c1.781-0.695,0.156-1.234-0.59-1.367c-1.762-0.32-3.609-1.438-5.93-2.305c-2.32-0.875-8.918,0.848-10.184,1.039
		c-1.02,0.152-2.648-0.227-3.5-1.055c6.586-1.457,12.941-3.312,19.035-5.523c1.664,2.926,4.527,4.672,7.945,5.02
		c4.727,0.477,13.852-5.223,15.723-6.379c1.629-1.004-0.066-1.234-0.828-1.234c-1.785,0-3.809-0.762-6.246-1.195
		c-2.438-0.441-8.617,2.441-9.828,2.859c-0.926,0.32-2.488,0.266-3.488-0.305c6.277-2.457,12.23-5.309,17.793-8.539
		c2.258,2.648,5.512,3.812,9.016,3.406c4.719-0.543,12.414-8.062,13.996-9.59c1.375-1.324-0.332-1.191-1.07-1.031
		c-1.746,0.387-3.887,0.07-6.359,0.164c-2.477,0.094-7.898,4.23-8.992,4.898c-0.879,0.535-2.527,0.816-3.637,0.383
		c0.578-0.355,1.184-0.684,1.75-1.047c5.074-3.273,9.66-6.832,13.797-10.629c2.961,2.16,6.562,2.453,9.953,1.055
		c4.395-1.812,9.754-11.137,10.859-13.043c0.961-1.648-0.645-1.055-1.312-0.695c-1.578,0.844-3.719,1.129-6.074,1.891
		c-2.359,0.758-6.449,6.219-7.316,7.156c-0.754,0.816-2.449,1.586-3.66,1.316c4.18-4.137,7.836-8.539,10.895-13.203
		c0.461-0.703,0.867-1.418,1.297-2.125h0.004c3.52,1.16,7.066,0.301,9.875-2.117c3.598-3.094,5.742-13.641,6.195-15.797
		c0.391-1.871-0.945-0.801-1.469-0.246c-1.227,1.301-3.172,2.238-5.168,3.708c-1.996,1.469-4.16,7.934-4.688,9.102
		c-0.453,1-1.801,2.246-3.023,2.395c3.141-5.758,5.352-11.719,6.629-17.84C543.382,273.66,546.39,271.957,548.374,269.042z
		 M504.19,196.855c0,0,2.051,6.285,11.992,10.013c3.219,6.995,7.867,8.233,7.867,8.233c-3.094,4.205-10.141,8.336-15.199,10.906
		c-4.191-4.367-9.172-8.459-14.938-12.176c-0.305-0.195-0.621-0.375-0.926-0.568C495.968,207.154,499.952,200.358,504.19,196.855z
		 M521.874,225.027c0,0-3.586,3.145-6.457,9.004c-1.227-1.787-2.574-3.539-4.047-5.254
		C517.831,227.609,521.874,225.027,521.874,225.027z M458.894,173.482c0,0,4.738,6.224,17.312,6.492
		c7.102,7.602,13.582,7.164,13.582,7.164c-1.832,5.775-7.477,12.757-12.395,18.033c-7.711-3.261-16.027-5.813-24.758-7.616
		C453.53,189.274,455.331,179.372,458.894,173.482z M491.374,200.177c0,0-2.168,3.846-3.574,10.037
		c-1.586-0.873-3.195-1.718-4.848-2.521C488.487,203.908,491.374,200.177,491.374,200.177z M448.167,205.878
		c0.719,1.993,1.574,4.084,2.629,6.279c0.199,0.428,1.121,0.76,1.027-0.287c-0.027-0.322-0.027-1.92,0.07-4.312
		c3.777,1.809,7.379,3.857,10.77,6.135c-5.363,1.025-11,1.846-16.828,2.455c-3.953-5.369-8.824-10.007-14.203-13.696
		c0.594-0.494,1.148-0.983,1.695-1.472C438.476,202.244,443.448,203.873,448.167,205.878z M427.093,205.923
		c0.898-0.627,1.754-1.256,2.57-1.884c5.012,3.338,9.594,7.522,13.375,12.394c-6.672,0.613-13.582,0.939-20.609,0.979v-19.992
		c2.625,0.02,5.215,0.125,7.789,0.272c-1.992,4.17-3.609,7.073-3.883,7.472C425.737,206.031,426.702,206.195,427.093,205.923z
		 M447.171,202.89c-3.793-1.508-7.719-2.804-11.766-3.861c0.297-0.294,0.59-0.586,0.871-0.876c3.375,0.327,6.695,0.77,9.953,1.307
		C446.491,200.55,446.808,201.7,447.171,202.89z M445.565,196.269c-2.234-0.35-4.496-0.641-6.773-0.893
		c4.719-5.601,6.219-9.801,6.219-9.801S444.39,189.617,445.565,196.269z M421.252,165.627c10.813,5.625,17.813,2.642,17.813,2.642
		c0.223,7.626-3.859,18.487-7.469,26.461c-3.426-0.22-6.883-0.334-10.368-0.334c-3.469,0-6.91,0.112-10.32,0.33
		c-3.609-7.974-7.691-18.832-7.469-26.457C403.439,168.269,410.439,171.254,421.252,165.627z M416.174,205.164
		c-0.273-0.399-1.891-3.304-3.887-7.476c2.555-0.145,5.129-0.249,7.738-0.269v19.996c-6.98-0.029-13.906-0.355-20.629-0.963
		c3.785-4.887,8.367-9.106,13.395-12.452c0.832,0.642,1.703,1.284,2.621,1.925C415.803,206.195,416.768,206.033,416.174,205.164z
		 M397.424,185.617c0,0,1.527,4.176,6.254,9.758c-2.273,0.251-4.527,0.542-6.758,0.89
		C398.068,189.635,397.424,185.617,397.424,185.617z M396.264,199.455c3.258-0.536,6.57-0.979,9.945-1.305
		c0.277,0.285,0.562,0.571,0.855,0.861c-4.027,1.052-7.945,2.321-11.719,3.819C395.701,201.66,396.01,200.528,396.264,199.455z
		 M390.682,211.871c-0.09,1.049,0.828,0.715,1.031,0.289c1.059-2.207,1.914-4.309,2.633-6.311c4.711-1.998,9.672-3.618,14.812-4.878
		c0.535,0.48,1.082,0.962,1.664,1.447c-5.398,3.696-10.27,8.374-14.227,13.761c-5.84-0.602-11.496-1.418-16.883-2.438
		c3.43-2.307,7.074-4.379,10.895-6.207C390.705,209.941,390.709,211.546,390.682,211.871z M366.299,179.974
		c12.57-0.267,17.316-6.49,17.316-6.49c3.555,5.887,5.355,15.782,6.25,24.062c-8.734,1.8-17.055,4.351-24.77,7.61
		c-4.91-5.275-10.548-12.248-12.376-18.018C352.72,187.138,359.193,187.576,366.299,179.974z M359.525,207.68
		c-1.648,0.801-3.255,1.644-4.835,2.511c-1.416-6.177-3.588-10.014-3.588-10.014S353.993,203.899,359.525,207.68z M354.704,225.585
		c0.219,0.867,0.859,0.344,0.902-0.055c0.502-4.504,0.264-8.641-0.303-12.207c2.339-1.312,4.765-2.559,7.288-3.727
		c2.895,1.664,6.301,3.217,10.234,4.318c0.391,0.107,1.113-0.289,0.395-0.818c-0.355-0.262-2.789-2.43-5.875-5.581
		c7.055-2.893,14.707-5.227,22.816-6.923c0.137,1.558,0.238,3.016,0.316,4.341c-4.996,2.316-9.711,5.026-14.059,8.132
		c-7.895,5.645-14.203,12.246-18.836,19.633c0.922,0.074,1.797,0.186,2.637,0.326c4.23-6.471,9.84-12.291,16.742-17.361
		c5.742,1.166,11.828,2.086,18.113,2.768c-3.098,4.625-5.695,9.744-7.715,15.172h2.566c2.051-5.35,4.68-10.387,7.82-14.885
		c7.242,0.701,14.73,1.068,22.277,1.1v16.072c0.762-0.439,1.555-0.854,2.403-1.211v-14.867c7.605-0.039,15.078-0.412,22.273-1.117
		c3.992,5.707,7.16,12.281,9.348,19.277c0.48,0.307,0.969,0.6,1.441,0.934l1.703,1.27c-2.129-7.879-5.465-15.324-9.793-21.779
		c6.262-0.689,12.293-1.623,18.008-2.795c7.914,5.803,14.137,12.59,18.535,20.211c-1.535,0.469-3.086,0.93-4.668,1.367l0.621,2.285
		c1.762-0.486,3.516-0.98,5.227-1.508c1.242,2.381,2.273,4.811,3.125,7.273l1.066-3.934c-0.57-1.367-2.445-5.23-3.012-6.219
		c-4.73-8.357-11.535-15.766-20.273-22.012c-4.328-3.094-9.031-5.779-14.008-8.088c0.078-1.335,0.18-2.805,0.316-4.376
		c8.105,1.699,15.758,4.034,22.809,6.928c-3.082,3.146-5.508,5.306-5.863,5.565c-0.715,0.531,0.008,0.928,0.398,0.818
		c3.922-1.098,7.316-2.648,10.203-4.307c2.531,1.174,4.961,2.426,7.305,3.742c-0.562,3.562-0.797,7.686-0.293,12.182
		c0.047,0.398,0.688,0.922,0.906,0.055c0.125-0.496,1.586-4.543,3.875-9.555c5.293,3.357,10.031,7.07,14.051,11.109
		c-0.988,0.506-1.965,1.02-2.992,1.508c-0.422,0.199-0.859,0.391-1.285,0.586c-1.262,0.58-2.539,1.148-3.848,1.695
		c-0.449,0.189-0.906,0.373-1.359,0.559c-1.398,0.566-4.723,1.848-4.766,1.863h6.543c0.188-0.078,0.375-0.152,0.559-0.23
		c1.301-0.543,2.566-1.105,3.812-1.678c0.465-0.213,0.941-0.422,1.398-0.641c0.754-0.357,1.469-0.732,2.195-1.104
		c0.082-0.029,0.133-0.039,0.133-0.039s0.719-0.256,1.629-0.396c1.211,1.33,2.332,2.699,3.398,4.088l1.375,1.869
		c0.512,0.729,0.984,1.469,1.457,2.209c-0.484,1.336-0.918,2.764-1.254,4.301c-0.07,0.297,0.266,0.824,0.629,0.262
		c0.117-0.184,0.828-1.086,1.93-2.379c3.688,6.461,5.828,13.391,6.035,20.627h-17.41l-0.828,2.404h18.238
		c-0.332,11.398-5.336,22.079-13.852,31.286c-4.062-2.125-8.477-4.062-13.148-5.836c0,0-0.795,2.229-0.811,2.238
		c4.328,1.648,8.416,3.449,12.217,5.402c-6.168,6.191-13.941,11.656-22.953,16.16c-4.43-1.5-9.207-2.824-14.266-3.961
		c6.996-5.41,12.617-11.629,16.801-18.516h-2.805c-4.266,6.648-9.969,12.641-17.035,17.836c-0.012,0.008-0.023,0.012-0.031,0.02
		c-5.746-1.176-11.809-2.121-18.109-2.816c4.625-6.871,8.145-14.863,10.254-23.316c5.645,0.879,11.113,1.961,16.383,3.227
		l-0.922-2.688c-4.824-1.113-9.797-2.09-14.918-2.891l-2.348-0.379c-0.062,0.406-0.621,2.372-0.582,2.375
		c-2.16,8.543-5.793,16.59-10.582,23.395c-7.168-0.699-14.605-1.082-22.184-1.121V288.68c-0.813-0.219-1.61-0.461-2.403-0.723
		v15.098c-7.582,0.031-15.02,0.402-22.195,1.094c-3.176-4.523-5.824-9.594-7.895-14.98h-2.559
		c2.027,5.453,4.641,10.602,7.762,15.246c-6.332,0.688-12.426,1.629-18.199,2.805c-6.949-5.113-12.57-10.996-16.805-17.52
		c-0.844,0.16-1.719,0.27-2.613,0.352c4.125,6.609,9.598,12.59,16.348,17.824c-5.078,1.133-9.879,2.453-14.328,3.949
		c-9.015-4.52-16.786-10.004-22.938-16.211c4.105-2.098,8.557-4.016,13.277-5.762c-1.451-0.219-2.848-0.531-4.174-0.961
		c-3.812,1.52-7.449,3.152-10.838,4.914c-8.445-9.18-13.406-19.813-13.738-31.161h7.471c-0.012-0.422-0.045-0.828-0.045-1.258
		c0-0.391,0.031-0.762,0.043-1.146h-7.469c0.211-7.26,2.332-14.219,6.029-20.697c1.143,1.332,1.871,2.262,1.994,2.449
		c0.363,0.562,0.695,0.035,0.625-0.262c-0.342-1.564-0.785-3.014-1.277-4.371c1.781-2.795,3.832-5.5,6.189-8.084
		c0.334,0.061,0.855,0.17,1.24,0.354c0.125,0.059,0.256,0.113,0.387,0.168c0.664,0.338,1.316,0.684,2.004,1.008
		c0.486,0.232,0.99,0.453,1.484,0.68c1.215,0.559,2.449,1.105,3.715,1.635c0.549,0.23,1.104,0.457,1.662,0.682
		c0.152,0.062,0.314,0.117,0.467,0.18c1.295-0.441,2.648-0.777,4.059-1.012c-1.402-0.518-2.781-1.051-4.131-1.6
		c-0.381-0.154-0.766-0.311-1.143-0.467c-1.336-0.561-2.639-1.141-3.922-1.732c-0.395-0.184-0.805-0.361-1.195-0.549
		c-0.93-0.441-1.812-0.908-2.713-1.367c4.059-4.094,8.85-7.855,14.207-11.25C353.112,221.027,354.577,225.089,354.704,225.585z
		 M445.745,306.703c5.863,0.609,11.527,1.434,16.914,2.461c-10.223,6.871-22.312,11.695-35.465,14.082
		C434.222,319.375,440.55,313.754,445.745,306.703z M422.429,322.938v-17.477c6.988,0.039,13.859,0.363,20.5,0.969
		C437.214,313.82,430.194,319.477,422.429,322.938z M465.956,309.824c4.832,1.02,9.418,2.215,13.699,3.566
		c-14.375,6.633-31.598,10.879-50.254,11.852C443.022,322.527,455.515,317.277,465.956,309.824z M379.713,309.113
		c5.406-1.027,11.09-1.84,16.969-2.441c5.199,7.066,11.535,12.695,18.574,16.574C402.072,320.852,389.955,316.008,379.713,309.113z
		 M413.049,325.242c-18.719-0.977-35.988-5.246-50.395-11.914c4.305-1.352,8.91-2.539,13.766-3.559
		C386.873,317.25,399.393,322.52,413.049,325.242z M399.498,306.398c6.648-0.598,13.527-0.914,20.527-0.941v17.484
		C412.248,319.473,405.217,313.809,399.498,306.398z M327.065,233.984c-2.857-5.832-6.42-8.965-6.42-8.965s4.016,2.574,10.443,3.75
		C329.628,230.47,328.288,232.21,327.065,233.984z M326.325,206.867c9.939-3.728,11.988-10.012,11.988-10.012
		c4.232,3.499,8.211,10.28,11.191,16.383c-0.318,0.199-0.65,0.391-0.967,0.594c-5.756,3.711-10.73,7.797-14.92,12.158
		c-5.055-2.572-12.078-6.693-15.164-10.889C318.454,215.101,323.104,213.863,326.325,206.867z M538.183,269.742
		c-0.727-0.766-1.219-1.961-1.262-2.812c-0.066-1.281,0.281-8.096-1.039-10.189c-1.32-2.096-2.789-3.684-3.457-5.338
		c-0.285-0.703-1.137-2.189-1.457-0.303c-0.367,2.166-2.223,12.764-0.004,16.963c1.426,2.707,3.715,4.586,6.551,5.281
		c-1.215,5.746-3.301,11.344-6.23,16.762c-0.406-0.898-0.535-2.031-0.371-2.797c0.266-1.246,2.367-7.738,1.633-10.102
		c-0.734-2.367-1.738-4.277-1.953-6.055c-0.094-0.754-0.535-2.41-1.328-0.672c-0.918,2-5.453,11.754-4.402,16.391
		c0.637,2.797,2.199,5.098,4.508,6.535c-0.379,0.609-0.727,1.23-1.125,1.84c-2.902,4.422-6.363,8.605-10.312,12.543
		c-0.09-0.969,0.141-2.055,0.531-2.715c0.648-1.105,4.688-6.602,4.734-9.078c0.047-2.48-0.301-4.609,0.051-6.359
		c0.152-0.746,0.254-2.457-1.047-1.059c-1.504,1.609-8.883,9.445-9.34,14.164c-0.281,2.895,0.504,5.598,2.285,7.699
		c-4,3.656-8.434,7.09-13.336,10.254c-0.512,0.328-1.059,0.621-1.574,0.941c0.113-1.039,0.691-2.172,1.301-2.754
		c0.926-0.883,6.309-5.07,7.027-7.438c0.723-2.371,0.965-4.523,1.785-6.113c0.348-0.672,0.91-2.289-0.723-1.297
		c-1.883,1.141-11.117,6.664-12.844,11.09c-1.113,2.848-1.035,5.809,0.289,8.41c-5.41,3.129-11.191,5.895-17.293,8.285
		c0.297-1.047,1.141-2.109,1.902-2.574c1.094-0.668,7.246-3.609,8.457-5.77s1.906-4.207,3.047-5.586
		c0.48-0.586,1.379-2.043-0.43-1.426c-2.082,0.711-12.281,4.137-14.914,8.09c-1.75,2.621-2.297,5.637-1.449,8.543
		c-5.859,2.121-11.969,3.91-18.301,5.324c0.508-0.906,1.473-1.719,2.254-2.02c1.195-0.461,7.777-2.242,9.359-4.148
		c1.578-1.906,2.633-3.797,4.004-4.941c0.582-0.492,1.727-1.762-0.164-1.484c-2.176,0.328-12.828,1.855-16.129,5.27
		c-2.176,2.242-3.254,5.078-2.973,8.062c-3.848,0.766-7.742,1.445-11.719,1.941c-2.758,0.336-5.336,0.766-7.797,1.273
		c0.41-1.168,1.926-2.207,3.004-2.426c1.254-0.258,8.039-0.938,9.91-2.562c1.875-1.621,3.219-3.312,4.762-4.223
		c0.652-0.383,1.988-1.453,0.078-1.48c-2.199-0.039-12.957-0.273-16.773,2.551c-2.902,2.152-4.5,5.316-4.25,8.891
		c-3.773,0.957-7.191,2.195-10.407,3.699c-3.215-1.504-6.633-2.742-10.406-3.699c0.25-3.574-1.348-6.738-4.25-8.891
		c-3.82-2.824-14.574-2.59-16.773-2.551c-1.914,0.027-0.574,1.098,0.078,1.48c1.539,0.91,2.887,2.602,4.758,4.223
		c1.875,1.625,8.66,2.305,9.914,2.562c1.078,0.219,2.594,1.258,3,2.426c-2.457-0.508-5.039-0.938-7.797-1.273
		c-3.977-0.496-7.867-1.176-11.715-1.941c0.281-2.984-0.797-5.82-2.973-8.062c-3.305-3.414-13.953-4.941-16.129-5.27
		c-1.891-0.277-0.746,0.992-0.164,1.484c1.371,1.145,2.422,3.035,4.004,4.941c1.578,1.906,8.164,3.688,9.355,4.148
		c0.785,0.301,1.746,1.113,2.258,2.02c-6.332-1.414-12.441-3.203-18.301-5.324c0.848-2.906,0.297-5.922-1.449-8.543
		c-2.633-3.953-12.833-7.379-14.915-8.09c-1.809-0.617-0.912,0.84-0.43,1.426c1.141,1.379,1.836,3.426,3.047,5.586
		s7.364,5.102,8.458,5.77c0.758,0.465,1.602,1.527,1.898,2.574c-6.099-2.391-11.882-5.156-17.29-8.285
		c1.324-2.602,1.402-5.562,0.289-8.41c-1.729-4.426-10.961-9.949-12.844-11.09c-1.635-0.992-1.07,0.625-0.723,1.297
		c0.82,1.59,1.062,3.742,1.783,6.113c0.721,2.367,6.104,6.555,7.029,7.438c0.609,0.582,1.186,1.715,1.301,2.754
		c-0.518-0.32-1.064-0.613-1.574-0.941c-4.904-3.164-9.338-6.598-13.336-10.254c1.781-2.102,2.564-4.805,2.285-7.699
		c-0.459-4.719-7.836-12.555-9.34-14.164c-1.303-1.398-1.199,0.312-1.049,1.059c0.354,1.75,0.004,3.879,0.053,6.359
		c0.047,2.477,4.086,7.973,4.734,9.078c0.387,0.66,0.621,1.746,0.531,2.715c-3.949-3.938-7.412-8.121-10.314-12.543
		c-0.398-0.609-0.746-1.23-1.123-1.84c2.307-1.438,3.867-3.738,4.506-6.535c1.053-4.637-3.482-14.391-4.4-16.391
		c-0.795-1.738-1.236-0.082-1.328,0.672c-0.215,1.777-1.221,3.688-1.953,6.055c-0.734,2.364,1.367,8.856,1.633,10.102
		c0.164,0.766,0.035,1.898-0.371,2.797c-2.932-5.418-5.016-11.016-6.232-16.762c2.834-0.695,5.127-2.574,6.553-5.281
		c2.217-4.199,0.363-14.797-0.004-16.963c-0.32-1.887-1.174-0.4-1.457,0.303c-0.668,1.654-2.137,3.242-3.457,5.338
		c-1.322,2.094-0.973,8.908-1.039,10.189c-0.043,0.852-0.535,2.047-1.266,2.812c-0.422-2.863-0.641-5.758-0.641-8.684
		c0-10.48,0.48-20.4,4.398-29.355c2.5-3.473,2.473-6.207,2.473-6.207c4.848,1.848,10.66,7.473,14.488,11.652
		c-4.549,7.637-6.955,15.834-6.955,24.289c0,18.036,10.816,34.938,30.457,47.602c19.44,12.531,45.253,19.438,72.69,19.438
		c27.435,0,53.247-6.906,72.685-19.438c19.641-12.664,30.457-29.566,30.457-47.602c0-8.441-2.398-16.629-6.934-24.254
		c3.828-4.184,9.66-9.836,14.52-11.688c0,0-0.027,2.727,2.465,6.195c3.926,8.957,4.406,18.881,4.406,29.367
		C538.827,263.984,538.608,266.878,538.183,269.742z M300.669,215.32c1.938,1.473,4.703,1.098,6.18-0.842
		c1.473-1.936,1.102-4.707-0.84-6.182c-1.941-1.473-4.707-1.1-6.18,0.836C298.353,211.072,298.728,213.843,300.669,215.32z"/>
	<g>
		<path fill="#FFFFFF" d="M294.595,384.555c-1.754,0-3.178-1.422-3.178-3.129c0-1.754,1.424-3.176,3.178-3.176
			c1.707,0,3.129,1.422,3.129,3.176C297.724,383.133,296.302,384.555,294.595,384.555z M292.13,412.676v-24.895h4.883v24.895H292.13
			z"/>
		<path fill="#FFFFFF" d="M318.114,412.676v-14.084c0-5.025-1.896-6.828-5.121-6.828c-3.271,0-5.121,2.322-5.121,6.354v14.559
			h-4.885v-24.895h4.885v2.371c1.232-1.803,3.699-2.895,6.26-2.895c5.785,0,8.867,3.795,8.867,11.145v14.273H318.114z"/>
		<path fill="#FFFFFF" d="M340.448,412.059c-1.186,0.664-2.846,1.139-4.789,1.139c-3.461,0-5.596-2.135-5.596-6.592v-14.367h-3.557
			v-4.457h3.557v-7.113l4.789-2.562v9.676h6.166v4.457h-6.166v13.516c0,2.322,0.76,2.986,2.561,2.986
			c1.281,0,2.703-0.475,3.605-0.996L340.448,412.059z"/>
		<path fill="#FFFFFF" d="M366.244,401.959H349.79c0.521,4.789,3.225,6.828,6.26,6.828c2.085,0,3.745-0.76,5.405-1.99l2.895,3.129
			c-2.184,2.086-4.789,3.271-8.585,3.271c-5.832,0-10.764-4.693-10.764-12.945c0-8.439,4.457-12.994,10.906-12.994
			c7.067,0,10.481,5.738,10.481,12.473C366.389,400.631,366.291,401.438,366.244,401.959z M355.575,391.668
			c-3.271,0-5.264,2.277-5.689,6.262h11.569C361.221,394.514,359.607,391.668,355.575,391.668z"/>
		<path fill="#FFFFFF" d="M383.553,392.949c-1.043-0.57-2.133-0.902-3.746-0.902c-3.082,0-4.883,2.184-4.883,6.402v14.227h-4.887
			v-24.895h4.887v2.371c1.137-1.66,3.223-2.895,5.688-2.895c1.992,0,3.227,0.381,4.223,1.043L383.553,392.949z"/>
		<path fill="#FFFFFF" d="M403.99,412.676v-14.084c0-5.025-1.895-6.828-5.121-6.828c-3.27,0-5.121,2.322-5.121,6.354v14.559h-4.883
			v-24.895h4.883v2.371c1.234-1.803,3.699-2.895,6.262-2.895c5.785,0,8.867,3.795,8.867,11.145v14.273H403.99z"/>
		<path fill="#FFFFFF" d="M428.698,412.676v-2.465c-1.707,1.707-4.125,2.986-6.829,2.986c-4.031,0-8.633-2.275-8.633-8.393
			c0-5.549,4.27-8.062,9.911-8.062c2.324,0,4.176,0.332,5.551,0.949v-1.85c0-2.703-1.66-4.221-4.695-4.221
			c-2.563,0-4.552,0.475-6.497,1.566l-1.898-3.699c2.371-1.471,5.027-2.23,8.536-2.23c5.551,0,9.344,2.703,9.344,8.348v17.07
			H428.698z M428.698,402.055c-1.328-0.664-3.035-1.092-5.691-1.092c-3.13,0-5.122,1.424-5.122,3.699
			c0,2.467,1.566,4.125,4.79,4.125c2.609,0,4.883-1.611,6.023-3.178V402.055z"/>
		<path fill="#FFFFFF" d="M452.788,412.059c-1.188,0.664-2.848,1.139-4.789,1.139c-3.461,0-5.598-2.135-5.598-6.592v-14.367h-3.555
			v-4.457h3.555v-7.113l4.789-2.562v9.676h6.168v4.457h-6.168v13.516c0,2.322,0.762,2.986,2.562,2.986
			c1.281,0,2.703-0.475,3.605-0.996L452.788,412.059z"/>
		<path fill="#FFFFFF" d="M461.226,384.555c-1.754,0-3.176-1.422-3.176-3.129c0-1.754,1.422-3.176,3.176-3.176
			c1.707,0,3.129,1.422,3.129,3.176C464.354,383.133,462.933,384.555,461.226,384.555z M458.761,412.676v-24.895h4.883v24.895
			H458.761z"/>
		<path fill="#FFFFFF" d="M479.39,413.197c-6.258,0-10.953-5.17-10.953-12.945c0-8.156,4.836-12.994,11.094-12.994
			c6.355,0,11.098,5.074,11.098,12.852C490.628,408.359,485.792,413.197,479.39,413.197z M479.343,391.906
			c-3.699,0-5.977,3.271-5.977,8.203c0,5.453,2.516,8.441,6.215,8.441c3.695,0,6.117-3.746,6.117-8.299
			C485.698,395.178,483.276,391.906,479.343,391.906z"/>
		<path fill="#FFFFFF" d="M510.308,412.676v-14.084c0-5.025-1.898-6.828-5.121-6.828c-3.273,0-5.121,2.322-5.121,6.354v14.559
			h-4.887v-24.895h4.887v2.371c1.23-1.803,3.699-2.895,6.258-2.895c5.785,0,8.867,3.795,8.867,11.145v14.273H510.308z"/>
		<path fill="#FFFFFF" d="M535.011,412.676v-2.465c-1.707,1.707-4.125,2.986-6.828,2.986c-4.031,0-8.629-2.275-8.629-8.393
			c0-5.549,4.266-8.062,9.91-8.062c2.324,0,4.172,0.332,5.547,0.949v-1.85c0-2.703-1.66-4.221-4.695-4.221
			c-2.559,0-4.551,0.475-6.496,1.566l-1.895-3.699c2.371-1.471,5.027-2.23,8.535-2.23c5.547,0,9.34,2.703,9.34,8.348v17.07H535.011z
			 M535.011,402.055c-1.328-0.664-3.035-1.092-5.688-1.092c-3.133,0-5.121,1.424-5.121,3.699c0,2.467,1.562,4.125,4.789,4.125
			c2.605,0,4.883-1.611,6.02-3.178V402.055z"/>
		<path fill="#FFFFFF" d="M545.589,412.676v-32.008l4.883-2.562v34.57H545.589z"/>
	</g>
	<g>
		<path fill="#FFFFFF" d="M296.698,446.734c-1.196,0-2.324-0.631-2.979-1.354v1.105h-2.302v-15.252l2.302-1.197v5.73
			c0.857-0.789,1.85-1.375,3.091-1.375c2.55,0,4.558,1.85,4.558,6.363C301.368,444.816,299.157,446.734,296.698,446.734z
			 M296.382,436.535c-1.105,0-2.075,0.744-2.685,1.514v4.984c0.519,0.701,1.602,1.559,2.775,1.559c1.67,0,2.571-1.264,2.571-3.77
			C299.044,437.844,298.097,436.535,296.382,436.535z"/>
		<path fill="#FFFFFF" d="M311.387,446.486v-1.129c-0.587,0.857-1.76,1.377-2.978,1.377c-2.753,0-4.221-1.805-4.221-5.303v-6.791
			h2.324v6.701c0,2.393,0.903,3.25,2.438,3.25c1.557,0,2.437-1.105,2.437-3.023v-6.928h2.324v11.846H311.387z"/>
		<path fill="#FFFFFF" d="M318.427,433.105c-0.835,0-1.512-0.676-1.512-1.488c0-0.836,0.677-1.512,1.512-1.512
			c0.812,0,1.488,0.676,1.488,1.512C319.915,432.43,319.238,433.105,318.427,433.105z M317.253,446.486v-11.846h2.324v11.846
			H317.253z"/>
		<path fill="#FFFFFF" d="M323.232,446.486v-15.23l2.324-1.219v16.449H323.232z"/>
		<path fill="#FFFFFF" d="M336.229,446.486v-1.129c-0.857,0.791-1.85,1.377-3.091,1.377c-2.55,0-4.559-1.85-4.559-6.363
			c0-4.061,2.212-5.979,4.671-5.979c1.196,0,2.324,0.631,2.979,1.354v-4.512l2.302-1.197v16.449H336.229z M336.252,438.092
			c-0.519-0.699-1.602-1.557-2.774-1.557c-1.67,0-2.573,1.264-2.573,3.768c0,2.979,0.948,4.289,2.663,4.289
			c1.105,0,2.076-0.746,2.685-1.512V438.092z"/>
		<path fill="#FFFFFF" d="M343.247,433.105c-0.835,0-1.512-0.676-1.512-1.488c0-0.836,0.677-1.512,1.512-1.512
			c0.812,0,1.488,0.676,1.488,1.512C344.735,432.43,344.059,433.105,343.247,433.105z M342.073,446.486v-11.846h2.324v11.846
			H342.073z"/>
		<path fill="#FFFFFF" d="M355.139,446.486v-6.701c0-2.393-0.903-3.25-2.437-3.25c-1.558,0-2.438,1.107-2.438,3.025v6.926h-2.323
			v-11.846h2.323v1.127c0.587-0.855,1.761-1.375,2.979-1.375c2.753,0,4.22,1.805,4.22,5.303v6.791H355.139z"/>
		<path fill="#FFFFFF" d="M364.637,450.842l-0.788-1.76c3.34-0.158,4.061-1.061,4.061-3.521v-0.203
			c-0.857,0.791-1.828,1.377-3.069,1.377c-2.527,0-4.557-1.85-4.557-6.363c0-4.061,2.233-5.979,4.67-5.979
			c1.195,0,2.324,0.631,2.956,1.354v-1.105h2.324v10.717C370.233,448.969,368.925,450.705,364.637,450.842z M367.955,438.092
			c-0.521-0.699-1.603-1.557-2.777-1.557c-1.667,0-2.57,1.264-2.57,3.768c0,2.979,0.946,4.289,2.661,4.289
			c1.107,0,2.077-0.746,2.687-1.512V438.092z"/>
		<path fill="#FFFFFF" d="M383.591,450.842l-0.79-1.76c3.34-0.158,4.061-1.061,4.061-3.521v-0.203
			c-0.855,0.791-1.826,1.377-3.067,1.377c-2.527,0-4.559-1.85-4.559-6.363c0-4.061,2.235-5.979,4.672-5.979
			c1.195,0,2.324,0.631,2.954,1.354v-1.105h2.324v10.717C389.186,448.969,387.878,450.705,383.591,450.842z M386.907,438.092
			c-0.518-0.699-1.601-1.557-2.774-1.557c-1.67,0-2.573,1.264-2.573,3.768c0,2.979,0.948,4.289,2.664,4.289
			c1.104,0,2.075-0.746,2.684-1.512V438.092z"/>
		<path fill="#FFFFFF" d="M392.729,446.486v-15.23l2.324-1.219v16.449H392.729z"/>
		<path fill="#FFFFFF" d="M403.243,446.734c-2.979,0-5.212-2.459-5.212-6.16c0-3.881,2.303-6.182,5.28-6.182
			c3.024,0,5.279,2.414,5.279,6.115C408.591,444.434,406.29,446.734,403.243,446.734z M403.221,436.604
			c-1.761,0-2.844,1.557-2.844,3.904c0,2.594,1.198,4.016,2.957,4.016c1.761,0,2.911-1.783,2.911-3.949
			C406.245,438.16,405.095,436.604,403.221,436.604z"/>
		<path fill="#FFFFFF" d="M416.736,446.734c-1.195,0-2.323-0.631-2.978-1.354v1.105h-2.303v-15.252l2.303-1.197v5.73
			c0.857-0.789,1.85-1.375,3.091-1.375c2.549,0,4.559,1.85,4.559,6.363C421.408,444.816,419.197,446.734,416.736,446.734z
			 M416.421,436.535c-1.105,0-2.075,0.744-2.685,1.514v4.984c0.519,0.701,1.602,1.559,2.775,1.559c1.67,0,2.573-1.264,2.573-3.77
			C419.085,437.844,418.136,436.535,416.421,436.535z"/>
		<path fill="#FFFFFF" d="M430.927,446.486v-1.172c-0.812,0.811-1.961,1.42-3.25,1.42c-1.914,0-4.105-1.082-4.105-3.994
			c0-2.639,2.031-3.836,4.715-3.836c1.107,0,1.988,0.158,2.641,0.451v-0.879c0-1.287-0.789-2.008-2.232-2.008
			c-1.221,0-2.166,0.225-3.092,0.744l-0.902-1.76c1.129-0.699,2.391-1.061,4.061-1.061c2.641,0,4.445,1.285,4.445,3.971v8.123
			H430.927z M430.927,441.432c-0.633-0.316-1.445-0.518-2.707-0.518c-1.49,0-2.438,0.676-2.438,1.76
			c0,1.172,0.746,1.963,2.279,1.963c1.24,0,2.324-0.768,2.865-1.512V441.432z"/>
		<path fill="#FFFFFF" d="M436.657,446.486v-15.23l2.324-1.219v16.449H436.657z"/>
		<path fill="#FFFFFF" d="M452.813,432.137c-0.766,0-1.082,0.293-1.082,1.15v1.354h2.189v2.166h-2.189v9.68h-2.324v-9.68h-1.535
			v-2.166h1.535v-1.557c0-2.166,1.332-2.979,3.002-2.979c0.607,0,1.264,0.09,1.76,0.225v2.031
			C453.626,432.203,453.222,432.137,452.813,432.137z"/>
		<path fill="#FFFFFF" d="M463.216,437.1c-0.496-0.27-1.016-0.428-1.783-0.428c-1.467,0-2.324,1.037-2.324,3.045v6.77h-2.324
			v-11.846h2.324v1.127c0.541-0.789,1.537-1.375,2.709-1.375c0.947,0,1.535,0.18,2.008,0.496L463.216,437.1z"/>
		<path fill="#FFFFFF" d="M467.505,433.105c-0.836,0-1.512-0.676-1.512-1.488c0-0.836,0.676-1.512,1.512-1.512
			c0.812,0,1.488,0.676,1.488,1.512C468.993,432.43,468.317,433.105,467.505,433.105z M466.329,446.486v-11.846h2.324v11.846
			H466.329z"/>
		<path fill="#FFFFFF" d="M481.739,441.387h-7.828c0.25,2.279,1.535,3.25,2.977,3.25c0.996,0,1.785-0.361,2.574-0.949l1.375,1.49
			c-1.035,0.992-2.277,1.557-4.082,1.557c-2.777,0-5.123-2.232-5.123-6.16c0-4.016,2.121-6.182,5.189-6.182
			c3.363,0,4.988,2.729,4.988,5.934C481.81,440.756,481.763,441.139,481.739,441.387z M476.665,436.49
			c-1.559,0-2.504,1.084-2.709,2.979h5.506C479.349,437.844,478.583,436.49,476.665,436.49z"/>
		<path fill="#FFFFFF" d="M491.896,446.486v-6.701c0-2.393-0.902-3.25-2.438-3.25c-1.559,0-2.438,1.107-2.438,3.025v6.926h-2.324
			v-11.846h2.324v1.127c0.586-0.855,1.762-1.375,2.98-1.375c2.75,0,4.219,1.805,4.219,5.303v6.791H491.896z"/>
		<path fill="#FFFFFF" d="M504.688,446.486v-1.129c-0.855,0.791-1.852,1.377-3.094,1.377c-2.547,0-4.555-1.85-4.555-6.363
			c0-4.061,2.211-5.979,4.668-5.979c1.195,0,2.324,0.631,2.98,1.354v-4.512l2.301-1.197v16.449H504.688z M504.712,438.092
			c-0.52-0.699-1.605-1.557-2.777-1.557c-1.668,0-2.57,1.264-2.57,3.768c0,2.979,0.945,4.289,2.66,4.289
			c1.105,0,2.078-0.746,2.688-1.512V438.092z"/>
		<path fill="#FFFFFF" d="M514.255,446.734c-1.602,0-3.34-0.631-4.535-1.512l1.059-1.76c1.109,0.768,2.348,1.174,3.453,1.174
			c1.469,0,2.168-0.475,2.168-1.309c0-0.902-1.039-1.332-2.754-1.986c-2.551-0.992-3.473-1.85-3.473-3.723
			c0-2.121,1.668-3.227,4.039-3.227c1.488,0,2.953,0.541,4.016,1.309l-1.016,1.783c-0.973-0.678-1.941-1.016-3.07-1.016
			s-1.625,0.451-1.625,1.082c0,0.588,0.406,1.016,2.191,1.715c2.641,1.016,3.992,1.738,3.992,3.973
			C518.7,445.855,516.579,446.734,514.255,446.734z"/>
		<path fill="#FFFFFF" d="M528.876,446.486v-6.701c0-2.393-0.902-3.25-2.438-3.25c-1.555,0-2.438,1.107-2.438,3.025v6.926h-2.32
			v-15.23l2.32-1.219v5.73c0.59-0.855,1.762-1.375,2.98-1.375c2.754,0,4.219,1.805,4.219,5.303v6.791H528.876z"/>
		<path fill="#FFFFFF" d="M535.825,433.105c-0.836,0-1.512-0.676-1.512-1.488c0-0.836,0.676-1.512,1.512-1.512
			c0.812,0,1.488,0.676,1.488,1.512C537.313,432.43,536.638,433.105,535.825,433.105z M534.653,446.486v-11.846h2.324v11.846
			H534.653z"/>
		<path fill="#FFFFFF" d="M545.798,446.734c-1.195,0-2.324-0.631-2.977-1.354v4.266l-2.305,1.195v-16.201h2.305v1.127
			c0.855-0.789,1.848-1.375,3.09-1.375c2.551,0,4.559,1.85,4.559,6.363C550.47,444.816,548.259,446.734,545.798,446.734z
			 M545.481,436.535c-1.102,0-2.074,0.744-2.684,1.514v4.984c0.52,0.701,1.602,1.559,2.777,1.559c1.668,0,2.57-1.264,2.57-3.77
			C548.146,437.844,547.196,436.535,545.481,436.535z"/>
	</g>
</g>
</svg>
